<?xml version="1.0" encoding="UTF-8" standalone="yes"?>
<svg version="1.2" width="500" height="500" baseProfile="tiny-ps" xmlns="http://www.w3.org/2000/svg">
  <title>bimi-svg-tiny-12-ps</title>
  <path d="M0 0 C1.81845484 1.74945097 2.90438077 3.01671055 3.8125 5.37109375 C3.4493379 12.82264194 -2.12612984 19.30972359 -7.1875 24.37109375 C-11.52853074 24.12551131 -13.57704732 22.46255037 -16.625 19.49609375 C-22.26307044 14.2952994 -27.32204398 11.37109375 -35.1875 11.37109375 C-40.87732097 11.9800378 -45.03994478 13.22353853 -49.1875 17.37109375 C-50.76172753 20.51954881 -50.85678343 23.96327447 -50.1875 27.37109375 C-46.13133511 33.72575208 -39.90812433 35.59798382 -33.1875 38.37109375 C-31.64255859 39.01691406 -31.64255859 39.01691406 -30.06640625 39.67578125 C-23.75107771 42.31663077 -23.75107771 42.31663077 -17.1875 41.37109375 C-14.40036742 39.72063653 -11.80099319 37.84421011 -9.1875 35.93359375 C-8.44072998 35.39661865 -7.69395996 34.85964355 -6.92456055 34.30639648 C0.90913957 28.64282607 8.72246666 22.89489173 16.05078125 16.5859375 C18.8125 14.37109375 18.8125 14.37109375 20.8125 14.37109375 C19.1625 12.39109375 17.5125 10.41109375 15.8125 8.37109375 C19.41545699 7.5324706 23.02005065 6.70110698 26.625 5.87109375 C27.64916016 5.63261719 28.67332031 5.39414063 29.72851562 5.1484375 C30.71142578 4.92285156 31.69433594 4.69726562 32.70703125 4.46484375 C33.61300049 4.25537109 34.51896973 4.04589844 35.45239258 3.83007812 C37.8125 3.37109375 37.8125 3.37109375 40.8125 3.37109375 C39.27617421 8.86675057 36.65831871 13.39203989 33.75 18.24609375 C33.29044922 19.02984375 32.83089844 19.81359375 32.35742188 20.62109375 C29.83889112 24.86672268 29.83889112 24.86672268 28.8125 26.37109375 C28.4825 26.37109375 28.1525 26.37109375 27.8125 26.37109375 C27.4825 24.72109375 27.1525 23.07109375 26.8125 21.37109375 C26.01368408 21.90887451 25.21486816 22.44665527 24.3918457 23.00073242 C-72.30705867 88.04179032 -72.30705867 88.04179032 -97.1875 83.37109375 C-99.4140625 82.50390625 -99.4140625 82.50390625 -101.1875 81.37109375 C-102.62072642 77.6088744 -102.33713381 75.07948919 -100.75 71.49609375 C-97.45045884 65.51783102 -92.47906437 60.1517405 -86.1875 57.37109375 C-85.75 60.43359375 -85.75 60.43359375 -86.1875 64.37109375 C-87.78095126 66.35862436 -89.53266923 67.96282412 -91.4296875 69.66015625 C-93.75173224 71.9202798 -94.95571108 74.40030872 -96.1875 77.37109375 C-79.58272135 76.02111175 -63.97228595 67.53947482 -49.1875 60.37109375 C-51.98281024 58.17844214 -54.82140469 56.44307559 -57.9375 54.74609375 C-64.9524244 50.55993503 -71.26532028 44.67109078 -73.7265625 36.6640625 C-76.01612416 25.27446342 -75.68024379 15.55557031 -69.65625 5.50390625 C-64.06344418 -2.61756178 -56.49233522 -7.36721365 -47 -9.94140625 C-30.7180263 -12.92787056 -13.3892533 -9.97021183 0 0 Z " fill="#046CEA" transform="translate(164.1875,194.62890625)"/>
  <path d="M0 0 C0 0.99 0 1.98 0 3 C-2.04153244 4.84221122 -4.05532919 6.48370098 -6.25 8.125 C-7.18996826 8.84490112 -7.18996826 8.84490112 -8.14892578 9.5793457 C-10.09180312 11.06307318 -12.04465556 12.53275436 -14 14 C-15.20067236 14.90735161 -16.40120008 15.81489465 -17.6015625 16.72265625 C-20.39202479 18.82729938 -23.19278967 20.9177286 -26 23 C-25.31164062 23.72703125 -25.31164062 23.72703125 -24.609375 24.46875 C-15.89639436 33.98713221 -13.48976756 42.14765797 -13.72265625 54.87890625 C-14.21486195 65.55805585 -19.57298128 74.01017853 -27.1875 81.1875 C-38.20065489 90.07063812 -52.26905304 92.03722981 -66 91 C-76.71225892 89.37816945 -88.07971457 85.2302208 -95.53125 77.06640625 C-98.84696943 72.40147119 -102 66.80158195 -102 61 C-102.67546875 60.96261719 -103.3509375 60.92523438 -104.046875 60.88671875 C-104.93890625 60.82097656 -105.8309375 60.75523437 -106.75 60.6875 C-108.07257813 60.60048828 -108.07257813 60.60048828 -109.421875 60.51171875 C-112.32303774 59.9358819 -113.79225607 58.92403852 -116 57 C-115.67 56.34 -115.34 55.68 -115 55 C-114.505 55.165 -114.01 55.33 -113.5 55.5 C-86.70285917 60.85942817 -48.09271368 32.89413647 -26.48828125 18.66650391 C-17.51839441 12.65900316 -8.61702815 6.50589848 0 0 Z M-54.9921875 39.9765625 C-55.77424561 40.39760254 -56.55630371 40.81864258 -57.36206055 41.25244141 C-58.60596558 41.93185791 -58.60596558 41.93185791 -59.875 42.625 C-67.47237017 46.70714743 -75.10756549 50.51429284 -83 54 C-80.938279 58.89398419 -77.60856622 60.66696469 -73 63 C-65.48416492 65.80251478 -57.16798757 65.72266252 -49.52734375 63.17578125 C-45.79816716 61.4122641 -42.37794228 59.42423689 -40 56 C-38.90636013 51.47962185 -38.62202631 49.1561548 -40.0625 44.75 C-42.34422858 41.5114175 -44.52869607 39.88028963 -48 38 C-51.20817476 38 -52.24567235 38.47736746 -54.9921875 39.9765625 Z " fill="#02479B" transform="translate(188,225)"/>
  <path d="M0 0 C3.375 0.25 3.375 0.25 7 1 C8.0625 2.9375 8.0625 2.9375 9 5 C12.04199472 6.29231642 12.04199472 6.29231642 15 7 C2.40727909 18.4381644 -22.51659925 29.06603431 -39.8359375 28.40625 C-42.23063469 27.95670396 -43.94636296 27.31179458 -46 26 C-47.43322642 22.23778065 -47.14963381 19.70839544 -45.5625 16.125 C-42.26295884 10.14673727 -37.29156437 4.78064675 -31 2 C-30.5625 5.0625 -30.5625 5.0625 -31 9 C-32.59345126 10.98753061 -34.34516923 12.59173037 -36.2421875 14.2890625 C-38.56423224 16.54918605 -39.76821108 19.02921497 -41 22 C-24.39522135 20.650018 -8.78478595 12.16838107 6 5 C5.38125 4.54625 4.7625 4.0925 4.125 3.625 C2 2 2 2 0 0 Z " fill="#116CDC" transform="translate(109,250)"/>
  <path d="M0 0 C2.84064179 1.69936849 3.34854524 2.91728444 5 6 C5.72380155 9.09425163 5.52203325 10.71119054 5 14 C2.08202904 17.60906934 -0.09721805 19.78377478 -4.75 20.3125 C-8.80901885 19.92220973 -10.83301684 18.50412622 -14 16 C-15.59453633 12.81092735 -15.38561702 9.47055318 -15 6 C-11.81583895 -0.80252587 -7.03296777 -1.13719887 0 0 Z M-6 5 C-6.99 5.66 -7.98 6.32 -9 7 C-9.41666667 9.5 -9.41666667 9.5 -9 12 C-8.34 12.66 -7.68 13.32 -7 14 C-3.69316534 13.71016731 -3.69316534 13.71016731 -1 12 C-0.95936168 10.33382885 -0.957279 8.66611905 -1 7 C-3.32854463 5.80161791 -3.32854463 5.80161791 -6 5 Z " fill="#084695" transform="translate(241,248)"/>
  <path d="M0 0 C3 1.4375 3 1.4375 5 4 C6.28590239 8.307773 6.50609572 11.74807902 4.8125 15.9375 C2.42703229 18.65199774 0.42651498 19.90205267 -3.21875 20.15234375 C-7.12714027 19.78425905 -9.41059562 19.46002293 -12.5625 17 C-14.53516889 12.8831258 -14.90731802 9.4798827 -14 5 C-10.45718707 -0.59993012 -6.15178032 -1.15903108 0 0 Z M-6 5 C-7.62750037 7.32323453 -7.62750037 7.32323453 -9 10 C-8.67 10.99 -8.34 11.98 -8 13 C-5.09926819 13.67801034 -5.09926819 13.67801034 -2 14 C-1.34 13.34 -0.68 12.68 0 12 C-0.32198966 8.90073181 -0.32198966 8.90073181 -1 6 C-2.65 5.67 -4.3 5.34 -6 5 Z " fill="#0A458E" transform="translate(337,248)"/>
  <path d="M0 0 C3.93434196 0.98358549 4.67149983 1.308193 7.25 4.0625 C8.03117187 4.88427734 8.03117187 4.88427734 8.828125 5.72265625 C9.21484375 6.14417969 9.6015625 6.56570312 10 7 C10.33 4.69 10.66 2.38 11 0 C12.98 0 14.96 0 17 0 C17 6.27 17 12.54 17 19 C16.34 19.33 15.68 19.66 15 20 C12.36 17.69 9.72 15.38 7 13 C6.34 15.31 5.68 17.62 5 20 C3.35 19.67 1.7 19.34 0 19 C0 12.73 0 6.46 0 0 Z " fill="#074492" transform="translate(348,248)"/>
  <path d="M0 0 C10.88229612 -0.76997378 10.88229612 -0.76997378 14.8125 1.9375 C16.25456963 5.65652167 15.88164677 7.9779068 15.23046875 11.83984375 C14.92947145 14.66105569 15.65016001 16.53852708 17 19 C13.6875 19.25 13.6875 19.25 10 19 C8.0625 17 8.0625 17 7 15 C6.67 16.32 6.34 17.64 6 19 C4.34385343 19.38218767 2.67542976 19.71395102 1 20 C0 19 0 19 -0.11352539 17.14233398 C-0.10828857 16.35157471 -0.10305176 15.56081543 -0.09765625 14.74609375 C-0.09443359 13.89208984 -0.09121094 13.03808594 -0.08789062 12.15820312 C-0.07951172 11.26037109 -0.07113281 10.36253906 -0.0625 9.4375 C-0.05798828 8.53580078 -0.05347656 7.63410156 -0.04882812 6.70507812 C-0.03700225 4.46998686 -0.0205222 2.23502563 0 0 Z M6 5 C6 6.32 6 7.64 6 9 C7.32 8.67 8.64 8.34 10 8 C9.67 7.01 9.34 6.02 9 5 C8.01 5 7.02 5 6 5 Z " fill="#08448F" transform="translate(245,213)"/>
  <path d="M0 0 C2.5 2 2.5 2 4 4 C3.67 4.99 3.34 5.98 3 7 C-0.02419525 6.41196203 -3.01758453 5.77321882 -6 5 C-6 5.66 -6 6.32 -6 7 C-5.36191406 7.13277344 -4.72382813 7.26554688 -4.06640625 7.40234375 C-3.24011719 7.57894531 -2.41382813 7.75554687 -1.5625 7.9375 C-0.73878906 8.11152344 0.08492188 8.28554688 0.93359375 8.46484375 C3 9 3 9 4 10 C4.45434298 15.22494432 4.45434298 15.22494432 2.9375 17.8125 C-0.04560004 19.64085164 -2.52738683 19.88025472 -6 20 C-8.875 18.8125 -8.875 18.8125 -11 17 C-11.33 15.68 -11.66 14.36 -12 13 C-9.03 13 -6.06 13 -3 13 C-4.134375 12.690625 -5.26875 12.38125 -6.4375 12.0625 C-10 11 -10 11 -11 10 C-11.37086093 4.1589404 -11.37086093 4.1589404 -11 2 C-7.33952058 -0.44031962 -4.25894744 -0.73696072 0 0 Z " fill="#0A438D" transform="translate(382,248)"/>
  <path d="M0 0 C2.1015625 0.359375 2.1015625 0.359375 4.2265625 2.171875 C5.1015625 4.359375 5.1015625 4.359375 4.1015625 7.359375 C1.4615625 7.029375 -1.1784375 6.699375 -3.8984375 6.359375 C-3.04958984 6.66681641 -3.04958984 6.66681641 -2.18359375 6.98046875 C-1.45011719 7.24988281 -0.71664062 7.51929688 0.0390625 7.796875 C0.76996094 8.06371094 1.50085938 8.33054688 2.25390625 8.60546875 C4.1015625 9.359375 4.1015625 9.359375 5.1015625 10.359375 C5.4765625 13.734375 5.4765625 13.734375 5.1015625 17.359375 C2.83220963 19.62872787 1.28135084 20.34809595 -1.94140625 20.37890625 C-5.36714202 20.04818859 -7.41773963 19.84007287 -9.8984375 17.359375 C-9.8984375 16.039375 -9.8984375 14.719375 -9.8984375 13.359375 C-6.9284375 13.359375 -3.9584375 13.359375 -0.8984375 13.359375 C-2.1978125 13.070625 -3.4971875 12.781875 -4.8359375 12.484375 C-7.05078125 11.9921875 -7.05078125 11.9921875 -8.8984375 11.359375 C-10.29778763 8.56067473 -10.15109155 6.45438708 -9.8984375 3.359375 C-7.12725348 -0.37646169 -4.36435193 -0.1421613 0 0 Z " fill="#09448F" transform="translate(215.8984375,247.640625)"/>
  <path d="M0 0 C2.1015625 0.359375 2.1015625 0.359375 4.2265625 2.171875 C5.1015625 4.359375 5.1015625 4.359375 4.1015625 7.359375 C1.4615625 7.029375 -1.1784375 6.699375 -3.8984375 6.359375 C-3.04958984 6.66681641 -3.04958984 6.66681641 -2.18359375 6.98046875 C-1.45011719 7.24988281 -0.71664062 7.51929688 0.0390625 7.796875 C0.76996094 8.06371094 1.50085938 8.33054688 2.25390625 8.60546875 C4.1015625 9.359375 4.1015625 9.359375 5.1015625 10.359375 C5.4765625 13.734375 5.4765625 13.734375 5.1015625 17.359375 C2.83220963 19.62872787 1.28135084 20.34809595 -1.94140625 20.37890625 C-5.36714202 20.04818859 -7.41773963 19.84007287 -9.8984375 17.359375 C-9.8984375 16.039375 -9.8984375 14.719375 -9.8984375 13.359375 C-6.9284375 13.359375 -3.9584375 13.359375 -0.8984375 13.359375 C-2.1978125 13.070625 -3.4971875 12.781875 -4.8359375 12.484375 C-7.05078125 11.9921875 -7.05078125 11.9921875 -8.8984375 11.359375 C-10.29778763 8.56067473 -10.15109155 6.45438708 -9.8984375 3.359375 C-7.12725348 -0.37646169 -4.36435193 -0.1421613 0 0 Z " fill="#084693" transform="translate(215.8984375,212.640625)"/>
  <path d="M0 0 C0 0.66 0 1.32 0 2 C-1.62249941 2.83819158 -3.24808497 3.6704116 -4.875 4.5 C-5.77992188 4.9640625 -6.68484375 5.428125 -7.6171875 5.90625 C-10 7 -10 7 -12 7 C-12 7.66 -12 8.32 -12 9 C-11.01 8.67 -10.02 8.34 -9 8 C-8.34 9.65 -7.68 11.3 -7 13 C-7.80050781 12.73960937 -8.60101563 12.47921875 -9.42578125 12.2109375 C-14.60288348 11.9054036 -17.77921015 14.09960407 -22.1875 16.625 C-23.87641321 17.55425118 -25.56651321 18.48134876 -27.2578125 19.40625 C-28.07024414 19.85484375 -28.88267578 20.3034375 -29.71972656 20.765625 C-41.23655063 27 -41.23655063 27 -45 27 C-44.01 28.65 -43.02 30.3 -42 32 C-42.66 32 -43.32 32 -44 32 C-44.33 32.99 -44.66 33.98 -45 35 C-45.02578125 34.37351562 -45.0515625 33.74703125 -45.078125 33.1015625 C-45.13484375 32.28429687 -45.1915625 31.46703125 -45.25 30.625 C-45.29640625 29.81289063 -45.3428125 29.00078125 -45.390625 28.1640625 C-45.59171875 27.44992187 -45.7928125 26.73578125 -46 26 C-47.99446777 24.84768002 -47.99446777 24.84768002 -50 24 C-49.31188232 23.68885254 -48.62376465 23.37770508 -47.91479492 23.05712891 C-36.06471447 17.68372526 -12.7079383 0 0 0 Z " fill="#0D468C" transform="translate(150,252)"/>
  <path d="M0 0 C4.55384615 -0.36923077 4.55384615 -0.36923077 6.8125 1.5 C7.204375 1.995 7.59625 2.49 8 3 C8.66 2.01 9.32 1.02 10 0 C13.125 -0.1875 13.125 -0.1875 16 0 C15.29445932 3.66881155 13.72264494 6.70450534 12 10 C12.37253906 10.47050781 12.74507813 10.94101563 13.12890625 11.42578125 C13.60199219 12.04839844 14.07507813 12.67101562 14.5625 13.3125 C15.03816406 13.92738281 15.51382812 14.54226562 16.00390625 15.17578125 C16.33261719 15.77777344 16.66132813 16.37976563 17 17 C16.67 17.99 16.34 18.98 16 20 C14.02 19.67 12.04 19.34 10 19 C9.67 17.68 9.34 16.36 9 15 C8.34 15 7.68 15 7 15 C6.773125 15.639375 6.54625 16.27875 6.3125 16.9375 C5 19 5 19 2.375 19.75 C1.59125 19.8325 0.8075 19.915 0 20 C-0.33 19.01 -0.66 18.02 -1 17 C-0.34 16.05125 0.32 15.1025 1 14.125 C3.27044239 11.24002455 3.27044239 11.24002455 2.875 8.3125 C2.01592049 5.78083767 2.01592049 5.78083767 0 3 C0 2.01 0 1.02 0 0 Z " fill="#084690" transform="translate(336,213)"/>
  <path d="M0 0 C3.96 0 7.92 0 12 0 C12 1.65 12 3.3 12 5 C10.02 5 8.04 5 6 5 C6 5.66 6 6.32 6 7 C7.98 7 9.96 7 12 7 C11.67 8.65 11.34 10.3 11 12 C9.35 12 7.7 12 6 12 C6 12.66 6 13.32 6 14 C7.98 14 9.96 14 12 14 C12.38218767 15.65614657 12.71395102 17.32457024 13 19 C12 20 12 20 9.53125 20.1328125 C8.03078125 20.12894531 8.03078125 20.12894531 6.5 20.125 C5.4996875 20.12757813 4.499375 20.13015625 3.46875 20.1328125 C1 20 1 20 0 19 C-0.08651611 17.58429877 -0.10704904 16.164405 -0.09765625 14.74609375 C-0.09443359 13.89208984 -0.09121094 13.03808594 -0.08789062 12.15820312 C-0.07951172 11.26037109 -0.07113281 10.36253906 -0.0625 9.4375 C-0.05798828 8.53580078 -0.05347656 7.63410156 -0.04882812 6.70507812 C-0.03700244 4.47002411 -0.01906638 2.23500398 0 0 Z " fill="#0F4587" transform="translate(227,213)"/>
  <path d="M0 0 C1.65 0 3.3 0 5 0 C5 4.62 5 9.24 5 14 C6.32 13.67 7.64 13.34 9 13 C9.33 8.71 9.66 4.42 10 0 C11.65 0 13.3 0 15 0 C15.0809313 2.60478883 15.14045434 5.20706653 15.1875 7.8125 C15.22520508 8.91948242 15.22520508 8.91948242 15.26367188 10.04882812 C15.33756292 15.49213507 15.33756292 15.49213507 13.69921875 17.95703125 C10.83499086 19.71507457 8.32048305 19.88550058 5 20 C2.29296875 19.05078125 2.29296875 19.05078125 0 17 C-0.63001191 14.08773908 -0.47044782 11.2746292 -0.3125 8.3125 C-0.28994141 7.51521484 -0.26738281 6.71792969 -0.24414062 5.89648438 C-0.18526944 3.93018666 -0.09558755 1.96485509 0 0 Z " fill="#04489B" transform="translate(269,248)"/>
  <path d="M0 0 C1.65 0 3.3 0 5 0 C6.32 2.64 7.64 5.28 9 8 C10.32 5.36 11.64 2.72 13 0 C14.65 0 16.3 0 18 0 C18.33 0.66 18.66 1.32 19 2 C18.02308907 4.73889229 16.98019549 7.34424724 15.8125 10 C15.50763672 10.73734375 15.20277344 11.4746875 14.88867188 12.234375 C12.53556932 17.64108443 12.53556932 17.64108443 9.76171875 19.5 C8.88966797 19.7475 8.88966797 19.7475 8 20 C6.65673469 17.42141033 5.32525335 14.83782579 4 12.25 C3.42765625 11.15558594 3.42765625 11.15558594 2.84375 10.0390625 C2.4828125 9.33007812 2.121875 8.62109375 1.75 7.890625 C1.41484375 7.24125977 1.0796875 6.59189453 0.734375 5.92285156 C0 4 0 4 0 0 Z " fill="#09458D" transform="translate(265,213)"/>
  <path d="M0 0 C3.3 0 6.6 0 10 0 C10 1.65 10 3.3 10 5 C9.34 5 8.68 5 8 5 C8 7.97 8 10.94 8 14 C8.99 14.33 9.98 14.66 11 15 C10.67 16.65 10.34 18.3 10 20 C6.7 19.67 3.4 19.34 0 19 C0.144375 18.360625 0.28875 17.72125 0.4375 17.0625 C1.17236798 13.06155212 1.58581111 9.04495104 2 5 C1.34 5 0.68 5 0 5 C0 3.35 0 1.7 0 0 Z " fill="#0C4386" transform="translate(287,213)"/>
  <path d="M0 0 C4.62 0 9.24 0 14 0 C14.33 1.32 14.66 2.64 15 4 C13.35 4.33 11.7 4.66 10 5 C10 9.62 10 14.24 10 19 C8.02 19 6.04 19 4 19 C4 14.38 4 9.76 4 5 C2.68 5 1.36 5 0 5 C0 3.35 0 1.7 0 0 Z " fill="#124483" transform="translate(289,248)"/>
  <path d="M0 0 C4.62 0 9.24 0 14 0 C14 1.65 14 3.3 14 5 C12.68 5 11.36 5 10 5 C10 9.62 10 14.24 10 19 C8.02 19 6.04 19 4 19 C4 14.38 4 9.76 4 5 C2.35 4.67 0.7 4.34 -1 4 C-0.67 2.68 -0.34 1.36 0 0 Z " fill="#0F4384" transform="translate(302,213)"/>
  <path d="M0 0 C3.3 0 6.6 0 10 0 C9.835 0.639375 9.67 1.27875 9.5 1.9375 C8.57039267 7.63134491 8.55210497 13.38940676 10 19 C6.30458414 19.95024979 3.69541586 19.95024979 0 19 C0.144375 18.360625 0.28875 17.72125 0.4375 17.0625 C1.17236798 13.06155212 1.58581111 9.04495104 2 5 C1.34 5 0.68 5 0 5 C0 3.35 0 1.7 0 0 Z " fill="#044696" transform="translate(308,248)"/>
  <path d="M0 0 C3.3 0 6.6 0 10 0 C9.835 0.639375 9.67 1.27875 9.5 1.9375 C8.57039267 7.63134491 8.55210497 13.38940676 10 19 C6.30458414 19.95024979 3.69541586 19.95024979 0 19 C0.144375 18.360625 0.28875 17.72125 0.4375 17.0625 C1.17236798 13.06155212 1.58581111 9.04495104 2 5 C1.34 5 0.68 5 0 5 C0 3.35 0 1.7 0 0 Z " fill="#0A4790" transform="translate(321,213)"/>
  <path d="M0 0 C1.98 0 3.96 0 6 0 C6 4.62 6 9.24 6 14 C7.98 14 9.96 14 12 14 C12.33 15.65 12.66 17.3 13 19 C11.02145742 19.19397476 9.0421352 19.38001321 7.0625 19.5625 C5.96035156 19.66691406 4.85820312 19.77132813 3.72265625 19.87890625 C2.82417969 19.91886719 1.92570313 19.95882813 1 20 C0 19 0 19 -0.11352539 17.14233398 C-0.10828857 16.35157471 -0.10305176 15.56081543 -0.09765625 14.74609375 C-0.09443359 13.89208984 -0.09121094 13.03808594 -0.08789062 12.15820312 C-0.07951172 11.26037109 -0.07113281 10.36253906 -0.0625 9.4375 C-0.05798828 8.53580078 -0.05347656 7.63410156 -0.04882812 6.70507812 C-0.03700225 4.46998686 -0.0205222 2.23502563 0 0 Z " fill="#09438B" transform="translate(251,248)"/>
  <path d="M0 0 C0 0.99 0 1.98 0 3 C-2.04153244 4.84221122 -4.05532919 6.48370098 -6.25 8.125 C-6.87664551 8.60493408 -7.50329102 9.08486816 -8.14892578 9.5793457 C-10.09180312 11.06307318 -12.04465556 12.53275436 -14 14 C-15.20067236 14.90735161 -16.40120008 15.81489465 -17.6015625 16.72265625 C-20.39202479 18.82729938 -23.19278967 20.9177286 -26 23 C-24.68 24.65 -23.36 26.3 -22 28 C-23.65 28 -25.3 28 -27 28 C-27 27.34 -27 26.68 -27 26 C-27.99 26.33 -28.98 26.66 -30 27 C-30 26.34 -30 25.68 -30 25 C-32.64 25.66 -35.28 26.32 -38 27 C-35.55434807 24.3409112 -32.85863222 22.46712782 -29.84375 20.48828125 C-28.82023438 19.81216797 -27.79671875 19.13605469 -26.7421875 18.43945312 C-25.67226562 17.73755859 -24.60234375 17.03566406 -23.5 16.3125 C-15.51526843 11.06694744 -7.67618646 5.68948726 0 0 Z " fill="#0E468E" transform="translate(188,225)"/>
  <path d="M0 0 C3.96 0 7.92 0 12 0 C12 0.33 12 0.66 12 1 C8.37 1 4.74 1 1 1 C1 6.61 1 12.22 1 18 C1.99 18 2.98 18 4 18 C4.16677282 14.58343976 4.16677282 14.58343976 4 11 C3.34 10.34 2.68 9.68 2 9 C2.375 6.875 2.375 6.875 3 5 C3.99 5 4.98 5 6 5 C6 6.32 6 7.64 6 9 C6.99 9.33 7.98 9.66 9 10 C8.01 10.495 8.01 10.495 7 11 C8.32 11.99 9.64 12.98 11 14 C11.99 13.01 12.98 12.02 14 11 C14.99 13.64 15.98 16.28 17 19 C13.6875 19.25 13.6875 19.25 10 19 C8.0625 17 8.0625 17 7 15 C6.67 16.32 6.34 17.64 6 19 C4.34385343 19.38218767 2.67542976 19.71395102 1 20 C0 19 0 19 -0.11352539 17.14233398 C-0.10828857 16.35157471 -0.10305176 15.56081543 -0.09765625 14.74609375 C-0.09443359 13.89208984 -0.09121094 13.03808594 -0.08789062 12.15820312 C-0.07951172 11.26037109 -0.07113281 10.36253906 -0.0625 9.4375 C-0.05798828 8.53580078 -0.05347656 7.63410156 -0.04882812 6.70507812 C-0.03700244 4.47002411 -0.01906638 2.23500398 0 0 Z " fill="#0F4284" transform="translate(245,213)"/>
  <path d="M0 0 C0 0.66 0 1.32 0 2 C0.66 2.33 1.32 2.66 2 3 C2.625 5.5625 2.625 5.5625 3 8 C1.02 8 -0.96 8 -3 8 C-3 9.32 -3 10.64 -3 12 C-3.99 12 -4.98 12 -6 12 C-6.33 12.99 -6.66 13.98 -7 15 C-8.65 13.68 -10.3 12.36 -12 11 C-11.34 10.46375 -10.68 9.9275 -10 9.375 C-7.68975201 7.10041408 -7.68975201 7.10041408 -7.75 3.75 C-7.8325 2.8425 -7.915 1.935 -8 1 C-2.25 0 -2.25 0 0 0 Z " fill="#026CF0" transform="translate(193,202)"/>
  <path d="M0 0 C2.64 0.33 5.28 0.66 8 1 C8 1.66 8 2.32 8 3 C6.68 3.33 5.36 3.66 4 4 C3.67 5.32 3.34 6.64 3 8 C5.64 8 8.28 8 11 8 C10.67 9.65 10.34 11.3 10 13 C2.57142857 12 2.57142857 12 -1 11 C-1.14285714 3.57142857 -1.14285714 3.57142857 0 0 Z " fill="#054491" transform="translate(229,220)"/>
  <path d="M0 0 C2.84064179 1.69936849 3.34854524 2.91728444 5 6 C5.57183252 8.97689283 5.40619103 10.90279339 5 14 C3.5 16 3.5 16 2 17 C2.57584432 14.61435923 3.22227595 12.33317216 4 10 C3.34 9.67 2.68 9.34 2 9 C1.67 8.01 1.34 7.02 1 6 C0.34 7.32 -0.32 8.64 -1 10 C-1.33 9.01 -1.66 8.02 -2 7 C-5.51190809 5.77030122 -5.51190809 5.77030122 -9 5 C-6.35261084 3.5393715 -5.10551666 3 -2 3 C-1.67 2.34 -1.34 1.68 -1 1 C-5.14030433 1.24354731 -7.5031277 1.63274656 -10.875 4.125 C-13.36725344 7.4968723 -13.75645269 9.85969567 -14 14 C-14.33 14 -14.66 14 -15 14 C-15.4390692 5.36497244 -15.4390692 5.36497244 -12 1 C-8.2510077 -0.87449615 -4.07279453 -0.65855233 0 0 Z " fill="#0F458F" transform="translate(241,248)"/>
  <path d="M0 0 C1.670625 0.061875 1.670625 0.061875 3.375 0.125 C3.42916188 1.72879341 3.46786638 3.33311406 3.5 4.9375 C3.52320313 5.83082031 3.54640625 6.72414063 3.5703125 7.64453125 C3.375 10.125 3.375 10.125 1.375 13.125 C0.055 13.125 -1.265 13.125 -2.625 13.125 C-2.295 12.135 -1.965 11.145 -1.625 10.125 C-2.615 9.795 -3.605 9.465 -4.625 9.125 C-5.25 5.75 -5.25 5.75 -5.625 2.125 C-3.625 0.125 -3.625 0.125 0 0 Z M-1.625 2.125 C-1.955 3.775 -2.285 5.425 -2.625 7.125 C-1.635 7.125 -0.645 7.125 0.375 7.125 C0.045 5.475 -0.285 3.825 -0.625 2.125 C-0.955 2.125 -1.285 2.125 -1.625 2.125 Z " fill="#0F448A" transform="translate(280.625,297.875)"/>
  <path d="M0 0 C1.670625 0.061875 1.670625 0.061875 3.375 0.125 C3.42916188 1.72879341 3.46786638 3.33311406 3.5 4.9375 C3.52320313 5.83082031 3.54640625 6.72414063 3.5703125 7.64453125 C3.375 10.125 3.375 10.125 1.375 13.125 C0.055 13.125 -1.265 13.125 -2.625 13.125 C-2.295 12.135 -1.965 11.145 -1.625 10.125 C-2.615 9.795 -3.605 9.465 -4.625 9.125 C-5.25 5.75 -5.25 5.75 -5.625 2.125 C-3.625 0.125 -3.625 0.125 0 0 Z M-1.625 2.125 C-1.955 3.775 -2.285 5.425 -2.625 7.125 C-1.635 7.125 -0.645 7.125 0.375 7.125 C0.045 5.475 -0.285 3.825 -0.625 2.125 C-0.955 2.125 -1.285 2.125 -1.625 2.125 Z " fill="#0E4388" transform="translate(292.625,279.875)"/>
  <path d="M0 0 C1.32 0 2.64 0 4 0 C4 5.28 4 10.56 4 16 C3.01 16 2.02 16 1 16 C1 15.34 1 14.68 1 14 C-0.32 13.67 -1.64 13.34 -3 13 C-2.67 11.35 -2.34 9.7 -2 8 C-1.34 8 -0.68 8 0 8 C0 5.36 0 2.72 0 0 Z " fill="#034799" transform="translate(360,249)"/>
  <path d="M0 0 C3.3 0 6.6 0 10 0 C9.835 0.639375 9.67 1.27875 9.5 1.9375 C8.57039267 7.63134491 8.55210497 13.38940676 10 19 C8.35 19.33 6.7 19.66 5 20 C5.33 19.34 5.66 18.68 6 18 C6.66 18 7.32 18 8 18 C8 17.01 8 16.02 8 15 C7.01 14.67 6.02 14.34 5 14 C4.9729957 12.54176788 4.95360213 11.08339325 4.9375 9.625 C4.92589844 8.81289062 4.91429687 8.00078125 4.90234375 7.1640625 C5 5 5 5 6 3 C4.68 2.67 3.36 2.34 2 2 C2 2.99 2 3.98 2 5 C1.34 5 0.68 5 0 5 C0 3.35 0 1.7 0 0 Z " fill="#104485" transform="translate(321,213)"/>
  <path d="M0 0 C1.3125 2.0625 1.3125 2.0625 2 4 C1.01 4 0.02 4 -1 4 C-1 3.34 -1 2.68 -1 2 C-2.32 2.33 -3.64 2.66 -5 3 C-5 4.65 -5 6.3 -5 8 C-3.68 8.33 -2.36 8.66 -1 9 C-1 8.34 -1 7.68 -1 7 C-0.01 7 0.98 7 2 7 C0.5511811 10.74278215 0.5511811 10.74278215 -1.875 11.875 C-4.64737098 12.03808065 -5.81312866 11.7344152 -8 10 C-8.96947431 6.81458441 -9.29934344 4.85197748 -8.1875 1.6875 C-5.83677658 -1.6530017 -3.61880198 -1.17611064 0 0 Z " fill="#174584" transform="translate(214,278)"/>
  <path d="M0 0 C1.3125 2.0625 1.3125 2.0625 2 4 C1.01 4 0.02 4 -1 4 C-1 3.34 -1 2.68 -1 2 C-2.32 2.33 -3.64 2.66 -5 3 C-5 4.65 -5 6.3 -5 8 C-3.68 8.33 -2.36 8.66 -1 9 C-1 8.34 -1 7.68 -1 7 C-0.01 7 0.98 7 2 7 C0.5511811 10.74278215 0.5511811 10.74278215 -1.875 11.875 C-4.64737098 12.03808065 -5.81312866 11.7344152 -8 10 C-8.96947431 6.81458441 -9.29934344 4.85197748 -8.1875 1.6875 C-5.83677658 -1.6530017 -3.61880198 -1.17611064 0 0 Z " fill="#154584" transform="translate(310,278)"/>
  <path d="M0 0 C3.96 0 7.92 0 12 0 C12 0.66 12 1.32 12 2 C10.35 2.33 8.7 2.66 7 3 C7.33 7.95 7.66 12.9 8 18 C6.68 18 5.36 18 4 18 C4.33 13.05 4.66 8.1 5 3 C3.68 2.67 2.36 2.34 1 2 C0.67 1.34 0.34 0.68 0 0 Z " fill="#03489B" transform="translate(290,249)"/>
  <path d="M0 0 C0.69480469 0.16371094 1.38960938 0.32742188 2.10546875 0.49609375 C5.2352816 1.04095996 8.13798083 1.09738483 11.3125 1.0625 C12.38113281 1.05347656 13.44976562 1.04445313 14.55078125 1.03515625 C15.76314453 1.01775391 15.76314453 1.01775391 17 1 C16.65195313 1.61746094 16.30390625 2.23492187 15.9453125 2.87109375 C15.63335937 3.57363281 15.32140625 4.27617187 15 5 C15.83333333 7.08333333 15.83333333 7.08333333 17 9 C17 9.99 17 10.98 17 12 C16.34 12 15.68 12 15 12 C14.67 10.02 14.34 8.04 14 6 C13.32453125 5.96261719 12.6490625 5.92523438 11.953125 5.88671875 C11.06109375 5.82097656 10.1690625 5.75523437 9.25 5.6875 C7.92742187 5.60048828 7.92742187 5.60048828 6.578125 5.51171875 C3.64584554 4.92970571 2.1597081 4.04364902 0 2 C0 1.34 0 0.68 0 0 Z " fill="#0A458B" transform="translate(72,280)"/>
  <path d="M0 0 C0.7734375 -0.00257813 1.546875 -0.00515625 2.34375 -0.0078125 C4.5 0.125 4.5 0.125 7.5 1.125 C7.5 2.115 7.5 3.105 7.5 4.125 C2.44997778 5.16090199 -2.37416389 5.22751672 -7.5 5.125 C-7.5 3.805 -7.5 2.485 -7.5 1.125 C-4.68772378 0.18757459 -2.91253156 -0.00970844 0 0 Z " fill="#066CEA" transform="translate(75.5,271.875)"/>
  <path d="M0 0 C0.99 0 1.98 0 3 0 C4.16306443 3.54950034 3.92365049 6.55823948 3.5625 10.25 C3.46066406 11.32765625 3.35882813 12.4053125 3.25390625 13.515625 C3.17011719 14.33546875 3.08632813 15.1553125 3 16 C1.68 16 0.36 16 -1 16 C-1.02685095 13.52076199 -1.04676547 11.0418116 -1.0625 8.5625 C-1.07506836 7.50192383 -1.07506836 7.50192383 -1.08789062 6.41992188 C-1.09653588 4.61306441 -1.05220011 2.80612397 -1 1 C-0.67 0.67 -0.34 0.34 0 0 Z " fill="#03479C" transform="translate(308,215)"/>
  <path d="M0 0 C2.33294775 -0.04241723 4.66702567 -0.04092937 7 0 C8 1 8 1 8.0625 3.375 C8.041875 4.24125 8.02125 5.1075 8 6 C8 6.99 8 7.98 8 9 C8 9.66 8 10.32 8 11 C7.01 11 6.02 11 5 11 C4.67 9.68 4.34 8.36 4 7 C3.34 7 2.68 7 2 7 C2 8.32 2 9.64 2 11 C1.34 11 0.68 11 0 11 C0 7.37 0 3.74 0 0 Z M2 2 C2 2.99 2 3.98 2 5 C3.32 4.67 4.64 4.34 6 4 C6 3.34 6 2.68 6 2 C4.68 2 3.36 2 2 2 Z " fill="#0E4588" transform="translate(290,296)"/>
  <path d="M0 0 C1.1446875 0.3403125 1.1446875 0.3403125 2.3125 0.6875 C3 3.5 3 3.5 3.3125 6.6875 C1.875 8.5625 1.875 8.5625 0.3125 9.6875 C-2.125 9 -2.125 9 -4.6875 7.6875 C-5.6875 5.25 -5.6875 5.25 -5.6875 2.6875 C-4.0011022 -0.12316299 -3.27764429 -0.38112143 0 0 Z M-1.6875 1.6875 C-2.0175 2.3475 -2.3475 3.0075 -2.6875 3.6875 C-1.6975 3.6875 -0.7075 3.6875 0.3125 3.6875 C0.3125 3.0275 0.3125 2.3675 0.3125 1.6875 C-0.3475 1.6875 -1.0075 1.6875 -1.6875 1.6875 Z " fill="#144485" transform="translate(304.6875,298.3125)"/>
  <path d="M0 0 C3.3125 -0.3125 3.3125 -0.3125 7 0 C9.0625 2.1875 9.0625 2.1875 10 5 C9.33719617 7.43028072 8.7989028 9.2010972 7 11 C4.66702567 11.04092937 2.33294775 11.04241723 0 11 C0 7.37 0 3.74 0 0 Z M2 2 C2 4.31 2 6.62 2 9 C3.65 8.67 5.3 8.34 7 8 C7 6.35 7 4.7 7 3 C5.35 2.67 3.7 2.34 2 2 Z " fill="#1A4E92" transform="translate(206,296)"/>
  <path d="M0 0 C0.78375 0.04125 1.5675 0.0825 2.375 0.125 C4.55357143 4.48214286 4.55357143 4.48214286 3.75 7.375 C2.375 9.125 2.375 9.125 0.4375 10.0625 C-1.625 10.125 -1.625 10.125 -3.375 9 C-5.01778138 6.53582793 -4.99771546 5.03218056 -4.625 2.125 C-2.625 0.125 -2.625 0.125 0 0 Z M-1.625 2.125 C-1.625 2.785 -1.625 3.445 -1.625 4.125 C-0.635 3.795 0.355 3.465 1.375 3.125 C0.385 2.795 -0.605 2.465 -1.625 2.125 Z " fill="#124A95" transform="translate(249.625,297.875)"/>
  <path d="M0 0 C3.0625 0.1875 3.0625 0.1875 5.0625 2.1875 C5.1875 5.8125 5.1875 5.8125 5.0625 9.1875 C4.0725 9.1875 3.0825 9.1875 2.0625 9.1875 C1.7325 7.2075 1.4025 5.2275 1.0625 3.1875 C0.7325 3.1875 0.4025 3.1875 0.0625 3.1875 C-0.2675 5.1675 -0.5975 7.1475 -0.9375 9.1875 C-1.9275 9.1875 -2.9175 9.1875 -3.9375 9.1875 C-4.03515625 3.03515625 -4.03515625 3.03515625 -3.9375 1.1875 C-2.9375 0.1875 -2.9375 0.1875 0 0 Z " fill="#15488A" transform="translate(268.9375,297.8125)"/>
  <path d="M0 0 C1.2375 0.1546875 1.2375 0.1546875 2.5 0.3125 C4.5 3.3125 4.5 3.3125 4.25 5.875 C3.5 8.3125 3.5 8.3125 1.5 10.3125 C-1.125 9.9375 -1.125 9.9375 -3.5 9.3125 C-4.125 5.9375 -4.125 5.9375 -4.5 2.3125 C-2.5 0.3125 -2.5 0.3125 0 0 Z M-0.5 2.3125 C-1.49 3.7975 -1.49 3.7975 -2.5 5.3125 C-2.17 5.9725 -1.84 6.6325 -1.5 7.3125 C-0.51 7.3125 0.48 7.3125 1.5 7.3125 C1.17 5.6625 0.84 4.0125 0.5 2.3125 C0.17 2.3125 -0.16 2.3125 -0.5 2.3125 Z " fill="#113F74" transform="translate(221.5,279.6875)"/>
  <path d="M0 0 C3.0625 0.1875 3.0625 0.1875 5.0625 2.1875 C5.1875 5.8125 5.1875 5.8125 5.0625 9.1875 C4.0725 9.1875 3.0825 9.1875 2.0625 9.1875 C1.7325 7.2075 1.4025 5.2275 1.0625 3.1875 C0.7325 3.1875 0.4025 3.1875 0.0625 3.1875 C-0.2675 5.1675 -0.5975 7.1475 -0.9375 9.1875 C-1.9275 9.1875 -2.9175 9.1875 -3.9375 9.1875 C-4.03515625 3.03515625 -4.03515625 3.03515625 -3.9375 1.1875 C-2.9375 0.1875 -2.9375 0.1875 0 0 Z " fill="#134484" transform="translate(280.9375,279.8125)"/>
  <path d="M0 0 C4.55555556 0.55555556 4.55555556 0.55555556 6 2 C6.04080783 3.99958364 6.04254356 6.00045254 6 8 C3.6875 9.125 3.6875 9.125 1 10 C0.01 9.34 -0.98 8.68 -2 8 C-2.3125 5 -2.3125 5 -2 2 C-1.34 1.34 -0.68 0.68 0 0 Z M1 2 C1 2.66 1 3.32 1 4 C1.99 3.67 2.98 3.34 4 3 C3.01 2.67 2.02 2.34 1 2 Z " fill="#1B4782" transform="translate(325,280)"/>
  <path d="M0 0 C4.55555556 0.55555556 4.55555556 0.55555556 6 2 C6.04080783 3.99958364 6.04254356 6.00045254 6 8 C3.6875 9.125 3.6875 9.125 1 10 C0.01 9.34 -0.98 8.68 -2 8 C-2.3125 5 -2.3125 5 -2 2 C-1.34 1.34 -0.68 0.68 0 0 Z M1 2 C0.67 2.66 0.34 3.32 0 4 C1.32 3.67 2.64 3.34 4 3 C3.01 2.67 2.02 2.34 1 2 Z " fill="#12488C" transform="translate(219,298)"/>
  <path d="M0 0 C4.55555556 0.55555556 4.55555556 0.55555556 6 2 C6.04080783 3.99958364 6.04254356 6.00045254 6 8 C3.6875 9.125 3.6875 9.125 1 10 C0.01 9.34 -0.98 8.68 -2 8 C-2.3125 5 -2.3125 5 -2 2 C-1.34 1.34 -0.68 0.68 0 0 Z M1 2 C0.67 2.66 0.34 3.32 0 4 C1.32 3.67 2.64 3.34 4 3 C3.01 2.67 2.02 2.34 1 2 Z " fill="#19457F" transform="translate(249,280)"/>
  <path d="M0 0 C1.65 0 3.3 0 5 0 C5.02690844 2.62506802 5.04679404 5.24986173 5.0625 7.875 C5.07087891 8.62136719 5.07925781 9.36773437 5.08789062 10.13671875 C5.11328125 15.7734375 5.11328125 15.7734375 4 18 C3.34 18 2.68 18 2 18 C2.66 14.37 3.32 10.74 4 7 C2.02 7.99 2.02 7.99 0 9 C0 6.03 0 3.06 0 0 Z " fill="#054999" transform="translate(279,248)"/>
  <path d="M0 0 C0 2.64 0 5.28 0 8 C-1.65 8.33 -3.3 8.66 -5 9 C-6.79640787 5.63173525 -7 3.81739679 -7 0 C-4.3333581 -1.33332095 -2.83319697 -0.67102033 0 0 Z M-4 1 C-4 1.66 -4 2.32 -4 3 C-3.34 2.67 -2.68 2.34 -2 2 C-2.66 1.67 -3.32 1.34 -4 1 Z " fill="#13478B" transform="translate(346,299)"/>
  <path d="M0 0 C0 2.64 0 5.28 0 8 C-1.65 8.33 -3.3 8.66 -5 9 C-6.79640787 5.63173525 -7 3.81739679 -7 0 C-4.3333581 -1.33332095 -2.83319697 -0.67102033 0 0 Z M-4 1 C-4 1.66 -4 2.32 -4 3 C-3.34 2.67 -2.68 2.34 -2 2 C-2.66 1.67 -3.32 1.34 -4 1 Z " fill="#164383" transform="translate(316,299)"/>
  <path d="M0 0 C0.66 0 1.32 0 2 0 C2 2.31 2 4.62 2 7 C2.99 7 3.98 7 5 7 C5 5.02 5 3.04 5 1 C5.99 0.67 6.98 0.34 8 0 C8 2.97 8 5.94 8 9 C5.125 9.625 5.125 9.625 2 10 C0 8 0 8 -0.1953125 6.0546875 C-0.13020833 4.03645833 -0.06510417 2.01822917 0 0 Z " fill="#124787" transform="translate(318,298)"/>
  <path d="M0 0 C0 2.64 0 5.28 0 8 C-1.65 8.33 -3.3 8.66 -5 9 C-6.79640787 5.63173525 -7 3.81739679 -7 0 C-4.3333581 -1.33332095 -2.83319697 -0.67102033 0 0 Z M-4 1 C-4 1.66 -4 2.32 -4 3 C-3.34 2.67 -2.68 2.34 -2 2 C-2.66 1.67 -3.32 1.34 -4 1 Z " fill="#17488A" transform="translate(356,281)"/>
  <path d="M0 0 C2.33294775 -0.04241723 4.66702567 -0.04092937 7 0 C8 1 8 1 8.09765625 2.84765625 C8.04882812 5.92382812 8.04882812 5.92382812 8 9 C7.34 9 6.68 9 6 9 C5.67 7.02 5.34 5.04 5 3 C4.67 3 4.34 3 4 3 C3.67 4.98 3.34 6.96 3 9 C2.01 9 1.02 9 0 9 C0 6.03 0 3.06 0 0 Z " fill="#0F3E7D" transform="translate(227,280)"/>
  <path d="M0 0 C2.33294775 -0.04241723 4.66702567 -0.04092937 7 0 C8 1 8 1 8.09765625 2.84765625 C8.04882812 5.92382812 8.04882812 5.92382812 8 9 C7.34 9 6.68 9 6 9 C5.67 7.02 5.34 5.04 5 3 C4.67 3 4.34 3 4 3 C3.67 4.98 3.34 6.96 3 9 C2.01 9 1.02 9 0 9 C0 6.03 0 3.06 0 0 Z " fill="#11427F" transform="translate(237,280)"/>
  <path d="M0 0 C3.84273787 1.50964702 6.05155406 3.33692163 8 7 C7.34281133 11.2680343 6.06901888 14.93098112 3 18 C3 16.35 3 14.7 3 13 C3.66 13 4.32 13 5 13 C4.71125 12.4225 4.4225 11.845 4.125 11.25 C3.08333333 9.16666667 2.04166667 7.08333333 1 5 C1.66 5 2.32 5 3 5 C3 4.34 3 3.68 3 3 C2.01 3 1.02 3 0 3 C0 2.01 0 1.02 0 0 Z " fill="#136BD2" transform="translate(160,193)"/>
  <path d="M0 0 C3.3 0 6.6 0 10 0 C9.7834375 0.9590625 9.7834375 0.9590625 9.5625 1.9375 C8.82763202 5.93844788 8.41418889 9.95504896 8 14 C7.67 14 7.34 14 7 14 C6.67 10.04 6.34 6.08 6 2 C4.35 1.67 2.7 1.34 1 1 C1 1.99 1 2.98 1 4 C1.66 4 2.32 4 3 4 C3 7.63 3 11.26 3 15 C2.01 15 1.02 15 0 15 C0.33 14.67 0.66 14.34 1 14 C1.23192865 12.48530552 1.41215238 10.96245438 1.5625 9.4375 C1.64628906 8.61121094 1.73007812 7.78492188 1.81640625 6.93359375 C1.87699219 6.29550781 1.93757813 5.65742188 2 5 C1.34 5 0.68 5 0 5 C0 3.35 0 1.7 0 0 Z " fill="#0F4385" transform="translate(308,248)"/>
  <path d="M0 0 C0.66 0.33 1.32 0.66 2 1 C1.01 2.32 0.02 3.64 -1 5 C1.31 5 3.62 5 6 5 C3.3765992 7.91488977 0.28183606 9.88503898 -3 12 C-3.66 11.67 -4.32 11.34 -5 11 C-4.34 9.35 -3.68 7.7 -3 6 C-4.65 6.33 -6.3 6.66 -8 7 C-5.4837822 4.39391727 -2.94865641 2.10618315 0 0 Z " fill="#126CDB" transform="translate(158,228)"/>
  <path d="M0 0 C4 1 4 1 5 2 C5.375 5.375 5.375 5.375 5 9 C2.71723847 11.28276153 1.16069803 11.98909118 -2.078125 12.01953125 C-4.25 11.8125 -4.25 11.8125 -8 11 C-8.33 10.34 -8.66 9.68 -9 9 C-5.37 9.33 -1.74 9.66 2 10 C1.34 6.7 0.68 3.4 0 0 Z " fill="#0F4680" transform="translate(216,221)"/>
  <path d="M0 0 C2.625 0.375 2.625 0.375 5 1 C5.33 1.99 5.66 2.98 6 4 C4.35 3.67 2.7 3.34 1 3 C0.67 4.32 0.34 5.64 0 7 C1.98 6.34 3.96 5.68 6 5 C5.67 6.32 5.34 7.64 5 9 C3.1875 9.625 3.1875 9.625 1 10 C0.01 9.34 -0.98 8.68 -2 8 C-2.3125 5 -2.3125 5 -2 2 C-1.34 1.34 -0.68 0.68 0 0 Z " fill="#16437E" transform="translate(259,280)"/>
  <path d="M0 0 C1.65 0 3.3 0 5 0 C1.44283087 2.96430761 -2.45050932 4.7721925 -6.625 6.6875 C-7.305625 7.00783203 -7.98625 7.32816406 -8.6875 7.65820312 C-13.74058835 10 -13.74058835 10 -16 10 C-16 9.34 -16 8.68 -16 8 C-14.68 8 -13.36 8 -12 8 C-11.67 6.68 -11.34 5.36 -11 4 C-10.01 4.33 -9.02 4.66 -8 5 C-7.34 4.67 -6.68 4.34 -6 4 C-6 3.01 -6 2.02 -6 1 C-3.03 1.495 -3.03 1.495 0 2 C0 1.34 0 0.68 0 0 Z " fill="#1365CC" transform="translate(112,261)"/>
  <path d="M0 0 C7.91912519 2.58220626 7.91912519 2.58220626 15.6875 0.625 C14.6975 2.605 13.7075 4.585 12.6875 6.625 C10.0475 5.965 7.4075 5.305 4.6875 4.625 C4.6875 3.965 4.6875 3.305 4.6875 2.625 C2.3775 2.955 0.0675 3.285 -2.3125 3.625 C-2.6425 2.635 -2.9725 1.645 -3.3125 0.625 C-5.32758358 -0.10823796 -5.32758358 -0.10823796 -7.3125 -0.375 C-4.47063762 -1.79593119 -3.0081247 -0.88737643 0 0 Z " fill="#146CD7" transform="translate(134.3125,234.375)"/>
  <path d="M0 0 C3.08089673 2.77280706 4.68775452 5.06326356 6 9 C3.6875 9.6875 3.6875 9.6875 1 10 C-0.8125 8.6875 -0.8125 8.6875 -2 7 C-2 6.34 -2 5.68 -2 5 C-2.66 4.67 -3.32 4.34 -4 4 C-2.68 4 -1.36 4 0 4 C0 2.68 0 1.36 0 0 Z " fill="#0B4287" transform="translate(347,223)"/>
  <path d="M0 0 C1.65 0 3.3 0 5 0 C5 4.62 5 9.24 5 14 C5.66 14.33 6.32 14.66 7 15 C6.01 15.99 5.02 16.98 4 18 C5.98 18.33 7.96 18.66 10 19 C10 19.33 10 19.66 10 20 C8.72125 19.896875 7.4425 19.79375 6.125 19.6875 C5.40570313 19.62949219 4.68640625 19.57148438 3.9453125 19.51171875 C2 19 2 19 0 16 C0.33 15.34 0.66 14.68 1 14 C1.99 14 2.98 14 4 14 C4 9.71 4 5.42 4 1 C2.68 0.67 1.36 0.34 0 0 Z " fill="#0B4180" transform="translate(269,248)"/>
  <path d="M0 0 C1.98 0 3.96 0 6 0 C6 6.27 6 12.54 6 19 C5.34 19.33 4.68 19.66 4 20 C2.02 18.35 0.04 16.7 -2 15 C-1.34 14.67 -0.68 14.34 0 14 C0.66 14.33 1.32 14.66 2 15 C2 15.66 2 16.32 2 17 C2.99 17 3.98 17 5 17 C5 11.72 5 6.44 5 1 C3.68 1 2.36 1 1 1 C1 2.98 1 4.96 1 7 C0.67 7 0.34 7 0 7 C0 4.69 0 2.38 0 0 Z " fill="#15407A" transform="translate(359,248)"/>
  <path d="M0 0 C2.875 -0.125 2.875 -0.125 6 0 C8 2 8 2 8.125 5.625 C8.08375 6.73875 8.0425 7.8525 8 9 C7.34 9 6.68 9 6 9 C5.67 6.69 5.34 4.38 5 2 C4.01 2.495 4.01 2.495 3 3 C2.34227572 6.02934491 2.34227572 6.02934491 2 9 C1.34 9 0.68 9 0 9 C0 6.03 0 3.06 0 0 Z " fill="#184E8F" transform="translate(333,280)"/>
  <path d="M0 0 C-3.625 3 -3.625 3 -7 3 C-7.33 4.32 -7.66 5.64 -8 7 C-10.97 6.505 -10.97 6.505 -14 6 C-11.71521804 -0.85434588 -6.37396799 -1.52975232 0 0 Z " fill="#026BF0" transform="translate(180,220)"/>
  <path d="M0 0 C3.375 0.25 3.375 0.25 7 1 C8.0625 2.9375 8.0625 2.9375 9 5 C12.04199472 6.29231642 12.04199472 6.29231642 15 7 C13.35 8.32 11.7 9.64 10 11 C9.34 10.67 8.68 10.34 8 10 C8.33 9.01 8.66 8.02 9 7 C7.35 7 5.7 7 4 7 C4.66 6.01 5.32 5.02 6 4 C4.02 3.01 2.04 2.02 0 1 C0 0.67 0 0.34 0 0 Z " fill="#216ED7" transform="translate(109,250)"/>
  <path d="M0 0 C0.66 0 1.32 0 2 0 C2.33 1.65 2.66 3.3 3 5 C3.66 5 4.32 5 5 5 C5.33 3.35 5.66 1.7 6 0 C6.66 0 7.32 0 8 0 C7.51421457 3.12290635 7.0013988 5.99580359 6 9 C4.68 9 3.36 9 2 9 C1.34 6.03 0.68 3.06 0 0 Z " fill="#174388" transform="translate(236,298)"/>
  <path d="M0 0 C0.33 0.66 0.66 1.32 1 2 C-2.79037089 7.47035213 -6.75027653 11.89962427 -12 16 C-12.66 15.67 -13.32 15.34 -14 15 C-13.67 14.34 -13.34 13.68 -13 13 C-12.01 13 -11.02 13 -10 13 C-9.7525 12.030625 -9.505 11.06125 -9.25 10.0625 C-8.8375 9.051875 -8.425 8.04125 -8 7 C-6.67203709 6.64587656 -5.33783393 6.31478446 -4 6 C-1.73674754 3.02236957 -1.73674754 3.02236957 0 0 Z " fill="#104383" transform="translate(169,293)"/>
  <path d="M0 0 C0 3 0 3 -1.25341797 4.33447266 C-1.82721191 4.7732373 -2.40100586 5.21200195 -2.9921875 5.6640625 C-3.61480469 6.14617187 -4.23742187 6.62828125 -4.87890625 7.125 C-5.53761719 7.62 -6.19632813 8.115 -6.875 8.625 C-7.52597656 9.12773437 -8.17695313 9.63046875 -8.84765625 10.1484375 C-13.62421573 13.81210787 -13.62421573 13.81210787 -16 15 C-16.33 14.01 -16.66 13.02 -17 12 C-8.585 6.06 -8.585 6.06 0 0 Z " fill="#275185" transform="translate(188,225)"/>
  <path d="M0 0 C2.475 0.495 2.475 0.495 5 1 C4.67 1.99 4.34 2.98 4 4 C3.93334624 5.39439664 3.91461801 6.79169875 3.9375 8.1875 C3.958125 9.445625 3.97875 10.70375 4 12 C3.01 12 2.02 12 1 12 C0.67 8.04 0.34 4.08 0 0 Z " fill="#02479C" transform="translate(323,215)"/>
  <path d="M0 0 C0.99 0 1.98 0 3 0 C3 3.63 3 7.26 3 11 C3.66 11.33 4.32 11.66 5 12 C3.68 12 2.36 12 1 12 C0 11 0 11 -0.09765625 8.49609375 C-0.08605469 7.48675781 -0.07445312 6.47742188 -0.0625 5.4375 C-0.05347656 4.42558594 -0.04445313 3.41367187 -0.03515625 2.37109375 C-0.02355469 1.58863281 -0.01195312 0.80617188 0 0 Z " fill="#104282" transform="translate(327,295)"/>
  <path d="M0 0 C0.99 0 1.98 0 3 0 C3 3.63 3 7.26 3 11 C3.66 11.33 4.32 11.66 5 12 C3.68 12 2.36 12 1 12 C0 11 0 11 -0.09765625 8.49609375 C-0.08605469 7.48675781 -0.07445312 6.47742188 -0.0625 5.4375 C-0.05347656 4.42558594 -0.04445312 3.41367187 -0.03515625 2.37109375 C-0.02355469 1.58863281 -0.01195312 0.80617188 0 0 Z " fill="#073F8E" transform="translate(226,295)"/>
  <path d="M0 0 C0.99 0 1.98 0 3 0 C3.33 4.29 3.66 8.58 4 13 C2.68 12.67 1.36 12.34 0 12 C0 8.04 0 4.08 0 0 Z " fill="#124380" transform="translate(313,277)"/>
  <path d="M0 0 C3 2 3 2 3.8125 4.875 C4.00455315 8.07588583 3.72217143 9.36609075 2 12 C1.01 12 0.02 12 -1 12 C-1.08159574 7.83861737 -0.98248524 4.0527516 0 0 Z " fill="#04479D" transform="translate(241,253)"/>
  <path d="M0 0 C2.31 0.33 4.62 0.66 7 1 C5.68 1.33 4.36 1.66 3 2 C3.99 2.99 4.98 3.98 6 5 C6 4.34 6 3.68 6 3 C6.99 3.33 7.98 3.66 9 4 C9.33 4.99 9.66 5.98 10 7 C2.25 6.25 2.25 6.25 0 4 C0 2.68 0 1.36 0 0 Z " fill="#0A448B" transform="translate(206,261)"/>
  <path d="M0 0 C0.886875 -0.02578125 1.77375 -0.0515625 2.6875 -0.078125 C3.450625 0.03015625 4.21375 0.1384375 5 0.25 C5.66 1.24 6.32 2.23 7 3.25 C6.01 3.25 5.02 3.25 4 3.25 C4 2.59 4 1.93 4 1.25 C-0.14030433 1.49354731 -2.5031277 1.88274656 -5.875 4.375 C-8.36725344 7.7468723 -8.75645269 10.10969567 -9 14.25 C-9.33 14.25 -9.66 14.25 -10 14.25 C-10.4390692 5.61497244 -10.4390692 5.61497244 -7 1.25 C-4.53183586 0.01591793 -2.75338799 0.04802421 0 0 Z " fill="#11427F" transform="translate(236,247.75)"/>
  <path d="M0 0 C1.67542976 0.28604898 3.34385343 0.61781233 5 1 C4.67 2.32 4.34 3.64 4 5 C1.36 5.33 -1.28 5.66 -4 6 C-1.125 1.125 -1.125 1.125 0 0 Z " fill="#026CEE" transform="translate(160,228)"/>
  <path d="M0 0 C0.66 0 1.32 0 2 0 C2 0.66 2 1.32 2 2 C2.66 2 3.32 2 4 2 C4 2.66 4 3.32 4 4 C3.34 4 2.68 4 2 4 C2 5.65 2 7.3 2 9 C2.66 9 3.32 9 4 9 C3.67 9.99 3.34 10.98 3 12 C2.01 11.67 1.02 11.34 0 11 C0 8.69 0 6.38 0 4 C-0.66 4 -1.32 4 -2 4 C-2 3.34 -2 2.68 -2 2 C-1.34 2 -0.68 2 0 2 C0 1.34 0 0.68 0 0 Z " fill="#154D8B" transform="translate(334,296)"/>
  <path d="M0 0 C0.66 0.33 1.32 0.66 2 1 C0.02 3.31 -1.96 5.62 -4 8 C-7.67420866 7.69381595 -8.78135513 7.24228216 -11.3125 4.4375 C-11.869375 3.633125 -12.42625 2.82875 -13 2 C-11.68 2 -10.36 2 -9 2 C-8.67 2.99 -8.34 3.98 -8 5 C-7.01 5.33 -6.02 5.66 -5 6 C-5 5.34 -5 4.68 -5 4 C-4.01 4 -3.02 4 -2 4 C-2 3.34 -2 2.68 -2 2 C-1.34 2 -0.68 2 0 2 C0 1.34 0 0.68 0 0 Z " fill="#196AC9" transform="translate(161,211)"/>
  <path d="M0 0 C0.33 0 0.66 0 1 0 C1.25 2.75 1.25 2.75 1 6 C-1 8.375 -1 8.375 -3 10 C-4.32 8.68 -5.64 7.36 -7 6 C-6.030625 5.38125 -5.06125 4.7625 -4.0625 4.125 C-0.97164638 2.34321154 -0.97164638 2.34321154 0 0 Z " fill="#0247A0" transform="translate(258,218)"/>
  <path d="M0 0 C1.65 0 3.3 0 5 0 C8 5.75 8 5.75 8 8 C7.34 8 6.68 8 6 8 C6 6.68 6 5.36 6 4 C5.34 4 4.68 4 4 4 C3.34 5.32 2.68 6.64 2 8 C0.23537317 4.91190305 0 3.76687864 0 0 Z " fill="#10427D" transform="translate(265,213)"/>
  <path d="M0 0 C0.99 0 1.98 0 3 0 C3 3.96 3 7.92 3 12 C2.01 12 1.02 12 0 12 C0 8.04 0 4.08 0 0 Z " fill="#15447F" transform="translate(261,295)"/>
  <path d="M0 0 C0.66 0 1.32 0 2 0 C2 0.66 2 1.32 2 2 C2.66 2 3.32 2 4 2 C4 2.66 4 3.32 4 4 C3.34 4 2.68 4 2 4 C2 5.98 2 7.96 2 10 C2.66 10.33 3.32 10.66 4 11 C2.68 11 1.36 11 0 11 C0 8.69 0 6.38 0 4 C-0.66 4 -1.32 4 -2 4 C-2 3.34 -2 2.68 -2 2 C-1.34 2 -0.68 2 0 2 C0 1.34 0 0.68 0 0 Z " fill="#11498C" transform="translate(344,278)"/>
  <path d="M0 0 C0.66 0 1.32 0 2 0 C2 0.66 2 1.32 2 2 C2.66 2 3.32 2 4 2 C4 2.66 4 3.32 4 4 C3.34 4 2.68 4 2 4 C2 5.65 2 7.3 2 9 C2.66 9 3.32 9 4 9 C4 9.99 4 10.98 4 12 C2.68 11.67 1.36 11.34 0 11 C-0.19491452 9.54263913 -0.38069358 8.08405407 -0.5625 6.625 C-0.66691406 5.81289063 -0.77132813 5.00078125 -0.87890625 4.1640625 C-1 2 -1 2 0 0 Z " fill="#114589" transform="translate(267,278)"/>
  <path d="M0 0 C1.5625 1.75 1.5625 1.75 3 4 C2.6875 6.25 2.6875 6.25 2 8 C0.35 8.33 -1.3 8.66 -3 9 C-3.33 8.01 -3.66 7.02 -4 6 C-2.0625 2.8125 -2.0625 2.8125 0 0 Z " fill="#0D428A" transform="translate(339,224)"/>
  <path d="M0 0 C0.99 0.33 1.98 0.66 3 1 C2.67 2.98 2.34 4.96 2 7 C0.35 7.33 -1.3 7.66 -3 8 C-2.74438677 5.6568787 -2.40729228 3.32156597 -2 1 C-1.34 0.67 -0.68 0.34 0 0 Z " fill="#0B6AE3" transform="translate(65,266)"/>
  <path d="M0 0 C1.65 0 3.3 0 5 0 C4.67 1.32 4.34 2.64 4 4 C2.35 4 0.7 4 -1 4 C-1 4.66 -1 5.32 -1 6 C-2.32 6 -3.64 6 -5 6 C-4.67 5.01 -4.34 4.02 -4 3 C-3.01 2.67 -2.02 2.34 -1 2 C-0.67 1.34 -0.34 0.68 0 0 Z " fill="#036DED" transform="translate(113,257)"/>
  <path d="M0 0 C1.32 0 2.64 0 4 0 C4 0.66 4 1.32 4 2 C3.01 2.495 3.01 2.495 2 3 C1.34444881 5.52733235 1.34444881 5.52733235 1 8 C1.66 8.33 2.32 8.66 3 9 C1.68 9 0.36 9 -1 9 C-1.625 5.625 -1.625 5.625 -2 2 C-1.34 1.34 -0.68 0.68 0 0 Z " fill="#194887" transform="translate(289,280)"/>
  <path d="M0 0 C0.33 0 0.66 0 1 0 C1.1953125 2.05078125 1.390625 4.1015625 1.5859375 6.15234375 C1.72257812 6.76207031 1.85921875 7.37179687 2 8 C2.66 8.33 3.32 8.66 4 9 C3.01 9.495 3.01 9.495 2 10 C0.35 8.35 -1.3 6.7 -3 5 C-1.125 1.125 -1.125 1.125 0 0 Z " fill="#03499E" transform="translate(326,254)"/>
  <path d="M0 0 C1.50559539 1.96382007 2.89131683 3.78263366 4 6 C6.01669827 7.13350534 6.01669827 7.13350534 8 8 C7.67 8.66 7.34 9.32 7 10 C3.18063472 8.44396229 0.73955562 6.04395069 -2 3 C-2 2.34 -2 1.68 -2 1 C-1.34 0.67 -0.68 0.34 0 0 Z " fill="#0B4588" transform="translate(93,297)"/>
  <path d="M0 0 C2.375 -0.1875 2.375 -0.1875 5 0 C7 3 7 3 7 7 C6.34 7 5.68 7 5 7 C5 5.68 5 4.36 5 3 C3.02 3.33 1.04 3.66 -1 4 C-0.67 2.68 -0.34 1.36 0 0 Z " fill="#0F4686" transform="translate(219,280)"/>
  <path d="M0 0 C-0.66 0.66 -1.32 1.32 -2 2 C-2.66 1.67 -3.32 1.34 -4 1 C-3.979375 1.78375 -3.95875 2.5675 -3.9375 3.375 C-4 6 -4 6 -5 8 C-5.99 8 -6.98 8 -8 8 C-8.36075949 3.55063291 -8.36075949 3.55063291 -6.8125 1.1875 C-4.44017475 -0.36678206 -2.77958655 -0.22537188 0 0 Z " fill="#04479C" transform="translate(215,249)"/>
  <path d="M0 0 C-1.75 5.75 -1.75 5.75 -4 8 C-3.67 6.35 -3.34 4.7 -3 3 C-5.97 3 -8.94 3 -12 3 C-12 2.67 -12 2.34 -12 2 C-10.56342755 1.66269158 -9.12569907 1.33030409 -7.6875 1 C-6.88699219 0.814375 -6.08648437 0.62875 -5.26171875 0.4375 C-3 0 -3 0 0 0 Z " fill="#1A6AC7" transform="translate(205,198)"/>
  <path d="M0 0 C-1.98 1.32 -3.96 2.64 -6 4 C-6.66 3.67 -7.32 3.34 -8 3 C-9.66619446 2.9603287 -11.33391013 2.95615553 -13 3 C-9.54666565 -0.45333435 -4.63654999 -1.85462 0 0 Z " fill="#186ED8" transform="translate(121,186)"/>
  <path d="M0 0 C1.65 0 3.3 0 5 0 C5 0.99 5 1.98 5 3 C4.01 3.495 4.01 3.495 3 4 C2.34444881 6.52733235 2.34444881 6.52733235 2 9 C1.34 9 0.68 9 0 9 C0 6.03 0 3.06 0 0 Z " fill="#144883" transform="translate(255,298)"/>
  <path d="M0 0 C0 2.31 0 4.62 0 7 C-0.99 7.495 -0.99 7.495 -2 8 C-2 7.01 -2 6.02 -2 5 C-3.98 5.66 -5.96 6.32 -8 7 C-2.65789474 0 -2.65789474 0 0 0 Z " fill="#206DCF" transform="translate(78,252)"/>
  <path d="M0 0 C1.65 0 3.3 0 5 0 C5.02690844 2.62506802 5.04679404 5.24986173 5.0625 7.875 C5.07087891 8.62136719 5.07925781 9.36773437 5.08789062 10.13671875 C5.11328125 15.7734375 5.11328125 15.7734375 4 18 C3.34 18 2.68 18 2 18 C2.23009766 17.21882813 2.23009766 17.21882813 2.46484375 16.421875 C3.13982511 13.36721485 3.34411118 10.36984029 3.5625 7.25 C3.68818359 5.49429688 3.68818359 5.49429688 3.81640625 3.703125 C3.87699219 2.81109375 3.93757813 1.9190625 4 1 C2.68 0.67 1.36 0.34 0 0 Z " fill="#174687" transform="translate(279,248)"/>
  <path d="M0 0 C-1 1 -1 1 -4.0625 1.0625 C-5.031875 1.041875 -6.00125 1.02125 -7 1 C-6.67 2.98 -6.34 4.96 -6 7 C-7.98 5.35 -9.96 3.7 -12 2 C-7.72170329 -0.29194467 -4.74957752 -1.52664992 0 0 Z " fill="#1C6BD0" transform="translate(192,202)"/>
  <path d="M0 0 C0.66 0 1.32 0 2 0 C2.05416188 1.60379341 2.09286638 3.20811406 2.125 4.8125 C2.14820313 5.70582031 2.17140625 6.59914063 2.1953125 7.51953125 C2 10 2 10 0 13 C-1.32 13 -2.64 13 -4 13 C-3.67 12.01 -3.34 11.02 -3 10 C-1.68 9.67 -0.36 9.34 1 9 C0.67 6.03 0.34 3.06 0 0 Z " fill="#0E3E7C" transform="translate(282,298)"/>
  <path d="M0 0 C3 2 3 2 3.875 3.8125 C4.05173809 6.90541659 2.72797493 8.51171611 1 11 C-0.32 10.34 -1.64 9.68 -3 9 C-2.01 8.67 -1.02 8.34 0 8 C0 5.36 0 2.72 0 0 Z " fill="#154084" transform="translate(212,296)"/>
  <path d="M0 0 C2.31 0 4.62 0 7 0 C4.14415227 1.90389849 2.0688238 2.69462177 -1.1875 3.625 C-2.08855469 3.88539063 -2.98960938 4.14578125 -3.91796875 4.4140625 C-4.94857422 4.70410156 -4.94857422 4.70410156 -6 5 C-6 4.01 -6 3.02 -6 2 C-4.02 2 -2.04 2 0 2 C0 1.34 0 0.68 0 0 Z " fill="#1267D3" transform="translate(89,271)"/>
  <path d="M0 0 C0.5625 1.9375 0.5625 1.9375 1 4 C0 5 0 5 -2.5625 5.0625 C-3.7690625 5.0315625 -3.7690625 5.0315625 -5 5 C-5 5.66 -5 6.32 -5 7 C-3.02 7 -1.04 7 1 7 C1 7.33 1 7.66 1 8 C-1.31 8 -3.62 8 -6 8 C-5.67 6.35 -5.34 4.7 -5 3 C-3.68 3 -2.36 3 -1 3 C-0.67 2.01 -0.34 1.02 0 0 Z " fill="#11407C" transform="translate(238,220)"/>
  <path d="M0 0 C0.99 0.33 1.98 0.66 3 1 C2.67 4.63 2.34 8.26 2 12 C1.34 12 0.68 12 0 12 C0 8.04 0 4.08 0 0 Z " fill="#1E4986" transform="translate(232,295)"/>
  <path d="M0 0 C0.99 0.33 1.98 0.66 3 1 C2.67 4.63 2.34 8.26 2 12 C1.34 12 0.68 12 0 12 C0 8.04 0 4.08 0 0 Z " fill="#1B4B8A" transform="translate(273,277)"/>
  <path d="M0 0 C0 1.32 0 2.64 0 4 C-2.875 4.125 -2.875 4.125 -6 4 C-6.66 3.34 -7.32 2.68 -8 2 C-4.77208445 -0.1519437 -3.71599191 -0.20086443 0 0 Z " fill="#06479B" transform="translate(383,256)"/>
  <path d="M0 0 C0.33 0 0.66 0 1 0 C1.06058594 0.59167969 1.12117188 1.18335938 1.18359375 1.79296875 C1.62012371 5.90978208 2.08671346 9.95544533 3 14 C1.35 14.33 -0.3 14.66 -2 15 C-1.67 14.34 -1.34 13.68 -1 13 C-0.34 13 0.32 13 1 13 C0.67 12.01 0.34 11.02 0 10 C-0.06802967 8.27204648 -0.08495645 6.54164635 -0.0625 4.8125 C-0.05347656 3.91144531 -0.04445313 3.01039063 -0.03515625 2.08203125 C-0.02355469 1.39496094 -0.01195312 0.70789063 0 0 Z " fill="#134277" transform="translate(328,218)"/>
  <path d="M0 0 C0.33 1.32 0.66 2.64 1 4 C3.31 4 5.62 4 8 4 C7.67 4.99 7.34 5.98 7 7 C5.125 7.875 5.125 7.875 3 8 C1.25 6.875 1.25 6.875 0 5 C-0.1875 2.3125 -0.1875 2.3125 0 0 Z " fill="#154579" transform="translate(245,300)"/>
  <path d="M0 0 C0.66 0 1.32 0 2 0 C2 3.96 2 7.92 2 12 C1.34 12 0.68 12 0 12 C0 8.04 0 4.08 0 0 Z " fill="#1C4982" transform="translate(319,277)"/>
  <path d="M0 0 C2.475 0.495 2.475 0.495 5 1 C5 3.64 5 6.28 5 9 C4.34 9 3.68 9 3 9 C2.87625 8.030625 2.7525 7.06125 2.625 6.0625 C2.41875 5.051875 2.2125 4.04125 2 3 C1.34 2.67 0.68 2.34 0 2 C0 1.34 0 0.68 0 0 Z " fill="#144683" transform="translate(230,280)"/>
  <path d="M0 0 C0.33 0 0.66 0 1 0 C1 1.98 1 3.96 1 6 C-1.3125 7.125 -1.3125 7.125 -4 8 C-4.99 7.34 -5.98 6.68 -7 6 C-6.67 5.34 -6.34 4.68 -6 4 C-4.35 4 -2.7 4 -1 4 C-0.67 2.68 -0.34 1.36 0 0 Z " fill="#16427E" transform="translate(224,300)"/>
  <path d="M0 0 C0.99 0.33 1.98 0.66 3 1 C4.61944896 4.68056581 4.12669105 9.07257739 4 13 C3.67 13.66 3.34 14.32 3 15 C2.34 14.67 1.68 14.34 1 14 C1.309375 12.205625 1.309375 12.205625 1.625 10.375 C2.13581838 6.4423982 1.56734717 3.6878757 0 0 Z " fill="#144681" transform="translate(146,267)"/>
  <path d="M0 0 C-4.455 2.97 -4.455 2.97 -9 6 C-9.66 5.67 -10.32 5.34 -11 5 C-10.67 4.34 -10.34 3.68 -10 3 C-9.01 3 -8.02 3 -7 3 C-7 2.01 -7 1.02 -7 0 C-3.98968256 -0.93423645 -3.13349732 -1.04449911 0 0 Z " fill="#1865C7" transform="translate(164,234)"/>
  <path d="M0 0 C0 0.99 0 1.98 0 3 C-2.31 3 -4.62 3 -7 3 C-7 2.01 -7 1.02 -7 0 C-4.3333581 -1.33332095 -2.83319697 -0.67102033 0 0 Z " fill="#01489F" transform="translate(296,228)"/>
  <path d="M0 0 C1.98 0 3.96 0 6 0 C5.67 0.66 5.34 1.32 5 2 C4.01 2 3.02 2 2 2 C2 2.66 2 3.32 2 4 C2.99 4.33 3.98 4.66 5 5 C4.01 5.33 3.02 5.66 2 6 C1.34 5.67 0.68 5.34 0 5 C0 3.35 0 1.7 0 0 Z " fill="#164A8F" transform="translate(248,284)"/>
  <path d="M0 0 C1.67542976 0.28604898 3.34385343 0.61781233 5 1 C5.33 1.99 5.66 2.98 6 4 C5.236875 3.773125 4.47375 3.54625 3.6875 3.3125 C2.800625 3.209375 1.91375 3.10625 1 3 C-0.8354799 4.33378575 -0.8354799 4.33378575 -2 6 C-1.125 1.125 -1.125 1.125 0 0 Z " fill="#1A4689" transform="translate(259,280)"/>
  <path d="M0 0 C0 2.31 0 4.62 0 7 C-0.99 7 -1.98 7 -3 7 C-3.33 5.35 -3.66 3.7 -4 2 C-1 0 -1 0 0 0 Z " fill="#02489D" transform="translate(276,224)"/>
  <path d="M0 0 C4.44870215 -0.39253254 7.14243493 0.84694043 11 3 C11 3.66 11 4.32 11 5 C9.53932801 4.54917531 8.08151968 4.08906463 6.625 3.625 C5.81289062 3.36976563 5.00078125 3.11453125 4.1640625 2.8515625 C2 2 2 2 0 0 Z " fill="#0E4287" transform="translate(101,308)"/>
  <path d="M0 0 C1.99954746 -0.04254356 4.00041636 -0.04080783 6 0 C7 1 7 1 7.0625 3.5625 C7.041875 4.366875 7.02125 5.17125 7 6 C6.01 5.67 5.02 5.34 4 5 C4.33 4.01 4.66 3.02 5 2 C3.35 1.67 1.7 1.34 0 1 C0 0.67 0 0.34 0 0 Z " fill="#144C8A" transform="translate(291,296)"/>
  <path d="M0 0 C3.875 0.875 3.875 0.875 5 2 C5.04092937 4.33297433 5.04241723 6.66705225 5 9 C4.34 9 3.68 9 3 9 C2.8046875 6.94921875 2.609375 4.8984375 2.4140625 2.84765625 C2.27742188 2.23792969 2.14078125 1.62820313 2 1 C1.34 0.67 0.68 0.34 0 0 Z " fill="#1F4273" transform="translate(336,280)"/>
  <path d="M0 0 C1.32 0.66 2.64 1.32 4 2 C2.71186658 2.83878455 1.41936744 3.67086783 0.125 4.5 C-0.59429687 4.9640625 -1.31359375 5.428125 -2.0546875 5.90625 C-4 7 -4 7 -6 7 C-6 6.01 -6 5.02 -6 4 C-4.02 3.67 -2.04 3.34 0 3 C0 2.01 0 1.02 0 0 Z " fill="#1769CD" transform="translate(134,248)"/>
  <path d="M0 0 C5.75 1.875 5.75 1.875 8 3 C8 3.66 8 4.32 8 5 C4.62537285 4.45276317 2.91765 3.9451 0 2 C0 1.34 0 0.68 0 0 Z " fill="#174D8C" transform="translate(72,280)"/>
  <path d="M0 0 C0.99 0 1.98 0 3 0 C2.625 2.4375 2.625 2.4375 2 5 C1.01 5.495 1.01 5.495 0 6 C0 5.34 0 4.68 0 4 C-0.66 4 -1.32 4 -2 4 C-1.34 2.68 -0.68 1.36 0 0 Z " fill="#0A69E1" transform="translate(73,257)"/>
  <path d="M0 0 C1.65 0 3.3 0 5 0 C5.33 0.66 5.66 1.32 6 2 C5.34 2.66 4.68 3.32 4 4 C2.68 3.34 1.36 2.68 0 2 C-0.33 3.32 -0.66 4.64 -1 6 C-1.33 5.34 -1.66 4.68 -2 4 C-1.0625 1.875 -1.0625 1.875 0 0 Z " fill="#164079" transform="translate(278,213)"/>
  <path d="M0 0 C0.66 0.33 1.32 0.66 2 1 C0.4198632 3.15473199 -1.10646634 5.10646634 -3 7 C-4.32 6.67 -5.64 6.34 -7 6 C-4.69 4.02 -2.38 2.04 0 0 Z " fill="#196BD4" transform="translate(183,209)"/>
  <path d="M0 0 C0 2.31 0 4.62 0 7 C-0.99 7 -1.98 7 -3 7 C-3 5.02 -3 3.04 -3 1 C-1 0 -1 0 0 0 Z " fill="#0F467F" transform="translate(274,300)"/>
  <path d="M0 0 C0.33 0 0.66 0 1 0 C1 1.98 1 3.96 1 6 C-0.65 6.66 -2.3 7.32 -4 8 C-4.66 7.34 -5.32 6.68 -6 6 C-5.195625 5.7525 -4.39125 5.505 -3.5625 5.25 C-0.828919 4.27761141 -0.828919 4.27761141 -0.1875 1.875 C-0.125625 1.25625 -0.06375 0.6375 0 0 Z " fill="#1F447D" transform="translate(330,282)"/>
  <path d="M0 0 C-0.33 0.99 -0.66 1.98 -1 3 C-2.65 3 -4.3 3 -6 3 C-6 3.66 -6 4.32 -6 5 C-6.99 5 -7.98 5 -9 5 C-8.67 4.01 -8.34 3.02 -8 2 C-5.27366306 0.89786379 -2.95855967 0 0 0 Z " fill="#024799" transform="translate(117,271)"/>
  <path d="M0 0 C2.97 0.495 2.97 0.495 6 1 C6 1.66 6 2.32 6 3 C4.68 3 3.36 3 2 3 C2 3.66 2 4.32 2 5 C1.34 5 0.68 5 0 5 C0 3.35 0 1.7 0 0 Z " fill="#134CA4" transform="translate(324,283)"/>
  <path d="M0 0 C2.31 0.33 4.62 0.66 7 1 C5.515 2.485 5.515 2.485 4 4 C2.68 3.34 1.36 2.68 0 2 C0 1.34 0 0.68 0 0 Z " fill="#036DEB" transform="translate(100,263)"/>
  <path d="M0 0 C2.31 0.33 4.62 0.66 7 1 C5.35 2.32 3.7 3.64 2 5 C1.34 4.67 0.68 4.34 0 4 C0 2.68 0 1.36 0 0 Z " fill="#1469D2" transform="translate(117,256)"/>
  <path d="M0 0 C0.99 0.99 1.98 1.98 3 3 C2.6875 6.1875 2.6875 6.1875 2 9 C1.34 9 0.68 9 0 9 C0 6.03 0 3.06 0 0 Z " fill="#01489E" transform="translate(247,222)"/>
  <path d="M0 0 C2.475 0.495 2.475 0.495 5 1 C5.33 2.65 5.66 4.3 6 6 C5.01 6 4.02 6 3 6 C2.814375 5.071875 2.814375 5.071875 2.625 4.125 C2.12802644 1.80879168 2.12802644 1.80879168 0 0 Z " fill="#19427B" transform="translate(292,301)"/>
  <path d="M0 0 C2.97 0.495 2.97 0.495 6 1 C6 1.66 6 2.32 6 3 C3.69 3.33 1.38 3.66 -1 4 C-0.67 2.68 -0.34 1.36 0 0 Z " fill="#0C479B" transform="translate(301,301)"/>
  <path d="M0 0 C0.33 0 0.66 0 1 0 C1 3.63 1 7.26 1 11 C1.66 11.33 2.32 11.66 3 12 C1.68 12 0.36 12 -1 12 C-0.67 8.04 -0.34 4.08 0 0 Z " fill="#19417A" transform="translate(228,295)"/>
  <path d="M0 0 C1.32 0 2.64 0 4 0 C5.60337726 2.25660504 6.76582217 4.53164435 8 7 C4.2047869 5.50902342 2.38957269 3.24299151 0 0 Z " fill="#1C6ACB" transform="translate(96,240)"/>
  <path d="M0 0 C0.99 0.33 1.98 0.66 3 1 C3 1.99 3 2.98 3 4 C1.02 4.33 -0.96 4.66 -3 5 C-3 4.34 -3 3.68 -3 3 C-2.01 3 -1.02 3 0 3 C0 2.01 0 1.02 0 0 Z " fill="#0B3F8D" transform="translate(212,220)"/>
  <path d="M0 0 C0.99 0.33 1.98 0.66 3 1 C2.67 1.66 2.34 2.32 2 3 C1.34 3 0.68 3 0 3 C0 2.01 0 1.02 0 0 Z " fill="#165783" transform="translate(348,305)"/>
  <path d="M0 0 C0.99 0.33 1.98 0.66 3 1 C2.67 1.66 2.34 2.32 2 3 C1.34 3 0.68 3 0 3 C0 2.01 0 1.02 0 0 Z " fill="#2E5571" transform="translate(358,287)"/>
</svg>